<svg width="265" height="234" xmlns="http://www.w3.org/2000/svg">
 <metadata id="metadata8">image/svg+xml</metadata>
 <defs>
  <clipPath clipPathUnits="userSpaceOnUse" id="clipPath18">
   <path d="m-95.25,902.64l595.28,0l0,-841.89l-595.28,0l0,841.89z" id="path16"/>
  </clipPath>
 </defs>
 <g>
  <title>background</title>
  <rect fill="none" id="canvas_background" height="236" width="267" y="-1" x="-1"/>
 </g>
 <g>
  <title>Layer 1</title>
  <g id="g10" transform="matrix(1.3333333,0,0,-1.3333333,0,1122.52) ">
   <g id="g12">
    <g id="g14" clip-path="url(#clipPath18)">
     <g id="g20">
      <path fill="#ffffff" fill-rule="evenodd" d="m106.967896,845.840881c53.186,0 96.317,-41.161 96.317,-91.916c0,-50.756 -43.131,-91.917 -96.317,-91.917c-53.184,0 -96.316,41.161 -96.316,91.917c0,50.755 43.132,91.916 96.316,91.916" id="path22"/>
     </g>
     <g id="g24">
      <path fill="#009847" fill-rule="evenodd" d="m106.967896,838.052185c48.679,0 88.155,-37.673 88.155,-84.127c0,-46.455 -39.476,-84.128 -88.155,-84.128c-48.678,0 -88.155,37.673 -88.155,84.128c0,46.454 39.477,84.127 88.155,84.127" id="path26"/>
     </g>
     <g id="g28">
      <path fill="none" stroke="#00a0e4" stroke-width="0.283" stroke-miterlimit="10" d="m106.967896,838.052185c48.679,0 88.155,-37.673 88.155,-84.127c0,-46.455 -39.476,-84.128 -88.155,-84.128c-48.678,0 -88.155,37.673 -88.155,84.128c0,46.454 39.477,84.127 88.155,84.127z" id="path30"/>
     </g>
     <g id="g32">
      <path fill="#ffffff" fill-rule="evenodd" d="m104.864304,822.620178c37.82,0 68.49,-29.521 68.49,-65.925c0,-8.218 -1.568,-16.084 -4.424,-23.34c-0.768,0.079 -1.543,0.118 -2.322,0.118c-1.354,0 -2.68,-0.127 -3.976,-0.377c3.202,7.249 4.974,15.225 4.974,23.599c0,33.348 -28.096,60.392 -62.742,60.392c-7.868,0 -15.398,-1.399 -22.338,-3.946l-2.05,5.171c7.578,2.781 15.796,4.308 24.388,4.308" id="path34"/>
     </g>
     <g id="g36">
      <path fill="none" stroke="#00a0e4" stroke-width="0.283" stroke-miterlimit="10" d="m104.864304,822.620178c37.82,0 68.49,-29.521 68.49,-65.925c0,-8.218 -1.568,-16.084 -4.424,-23.34c-0.768,0.079 -1.543,0.118 -2.322,0.118c-1.354,0 -2.68,-0.127 -3.976,-0.377c3.202,7.249 4.974,15.225 4.974,23.599c0,33.348 -28.096,60.392 -62.742,60.392c-7.868,0 -15.398,-1.399 -22.338,-3.946l-2.05,5.171c7.578,2.781 15.796,4.308 24.388,4.308z" id="path38"/>
     </g>
     <g id="g40">
      <path fill="#009847" fill-rule="evenodd" d="m70.598206,803.093079c1.734,1.321 3.673,2.388 5.795,3.172c2.67,0.98 5.493,1.476 8.373,1.476c4.125,0 7.96,-1.123 11.245,-3.403c2.986,-2.082 5.244,-4.766 6.755,-7.907c1.411,-2.959 2.156,-6.089 2.156,-9.314c0,-3.93 -1.089,-7.663 -3.423,-10.978c-2.139,-3.038 -4.964,-5.502 -8.448,-7.234c-3.274,-1.629 -6.828,-2.576 -10.578,-2.576c-2.649,0 -5.24,0.437 -7.692,1.347c-0.9,0.335 -1.763,0.73 -2.587,1.18c-2.021,-1.165 -4.56,-1.766 -7.29,-1.766l-6.711,0c-1.926,0 -3.793,0.24 -5.487,1.139l-0.103,0.054l-0.099,0.057c-0.068,0.039 -0.135,0.078 -0.2,0.118c-0.748,-0.402 -1.553,-0.735 -2.393,-1.011c-2.354,-0.775 -5.03,-0.955 -7.518,-0.955l-0.999,0c-2.596,0 -5.363,0.202 -7.82,1.004c-1.141,0.372 -2.147,0.895 -3.007,1.538c-0.887,-0.479 -1.816,-0.897 -2.78,-1.254c-2.391,-0.892 -4.922,-1.451 -7.516,-1.451c-4.098,0 -7.953,1.047 -11.25,3.272c-3.034,2.048 -5.3,4.732 -6.767,7.898c-1.377,2.974 -2.052,6.12 -2.052,9.345c0,3.591 0.81,7.075 2.592,10.282c1.705,3.09 4.128,5.702 7.296,7.646c3.168,1.929 6.745,2.969 10.562,2.969c3.004,0 5.913,-0.593 8.553,-1.916c0.586,-0.295 1.154,-0.614 1.701,-0.958c2.831,2.117 6.801,2.71 10.535,2.71l1.475,0c2.631,0 5.394,-0.293 7.775,-1.224c0.336,0.13 0.684,0.247 1.043,0.349c2.107,0.587 4.304,0.875 6.507,0.875c4.628,0 9.585,-0.925 12.357,-4.484" id="path42"/>
     </g>
     <g id="g44">
      <path fill="#ffffff" fill-rule="evenodd" d="m82.7061,795.542175c0.968,0 1.768,-0.815 2.395,-2.455c0.634,-1.63 1.087,-3.477 1.364,-5.538c0.278,-2.052 0.421,-3.692 0.421,-4.91c0,-2.434 -0.731,-3.653 -2.183,-3.653c-1.427,0.099 -2.465,1.552 -3.124,4.351c-0.665,2.808 -1.062,5.695 -1.213,8.669c0,0.933 0.207,1.759 0.626,2.475c0.413,0.708 0.984,1.061 1.714,1.061m-13.285,-9.544c0,-2.278 0.341,-4.311 1.016,-6.107c0.674,-1.787 1.617,-3.309 2.839,-4.566c1.222,-1.247 2.609,-2.19 4.171,-2.818c1.563,-0.629 3.228,-0.943 5.013,-0.943c2.403,0 4.79,0.649 7.177,1.934c2.388,1.287 4.346,3.113 5.885,5.48c1.539,2.366 2.308,5.075 2.308,8.139c0,2.503 -0.524,4.939 -1.57,7.316c-1.055,2.376 -2.578,4.309 -4.568,5.811c-1.999,1.504 -4.308,2.25 -6.94,2.25c-1.974,0 -3.887,-0.365 -5.719,-1.09c-1.84,-0.737 -3.481,-1.817 -4.932,-3.251c-1.451,-1.433 -2.593,-3.171 -3.428,-5.224c-0.832,-2.052 -1.252,-4.368 -1.252,-6.931m-20.699,5.242c0.237,0 0.697,0.325 1.388,0.973c0.69,0.648 1.34,1.355 1.935,2.121c0.602,0.756 0.904,1.276 0.904,1.55c0,0.267 -0.207,0.757 -0.619,1.484c-0.412,0.727 -0.611,1.296 -0.611,1.699c0,1.315 0.699,2.18 2.095,2.611c1.395,0.422 2.87,0.639 4.417,0.639c4.759,0 7.138,-1.237 7.138,-3.712c0,-0.785 -0.135,-1.287 -0.405,-1.493c-0.261,-0.215 -0.856,-0.481 -1.761,-0.804c-0.912,-0.315 -1.728,-0.746 -2.449,-1.296c-2.031,-1.287 -3.046,-2.19 -3.046,-2.721c0,-0.421 0.46,-1.325 1.379,-2.709c0.921,-1.385 2.079,-3.024 3.482,-4.901c1.396,-1.885 2.174,-2.935 2.323,-3.161c0.556,-0.863 1.366,-1.718 2.42,-2.582c1.055,-0.854 1.713,-1.413 1.967,-1.669c0.246,-0.265 0.373,-0.747 0.373,-1.453c0,-2.288 -1.586,-3.427 -4.76,-3.427l-6.708,0c-0.961,0 -1.594,0.098 -1.92,0.285c-0.318,0.196 -0.777,0.746 -1.363,1.659l-4.426,7.021c-0.848,1.561 -1.444,2.336 -1.8,2.336c-0.318,0 -0.476,-0.539 -0.476,-1.64c0,-1.482 0.103,-2.444 0.309,-2.895c0.198,-0.443 0.523,-0.933 0.976,-1.465c0.445,-0.528 0.666,-1.158 0.666,-1.874c0,-0.746 -0.151,-1.404 -0.46,-1.973c-0.309,-0.58 -1.04,-1.071 -2.198,-1.484c-1.157,-0.412 -2.862,-0.618 -5.107,-0.618l-0.999,0c-2.34,0 -4.148,0.225 -5.424,0.678c-1.277,0.451 -1.912,1.462 -1.912,3.033c0,0.747 0.293,1.375 0.889,1.865c0.593,0.502 1.015,0.913 1.252,1.238c0.246,0.325 0.421,1.198 0.532,2.602c0.095,1.031 0.143,2.602 0.143,4.723c0,2.19 -0.048,4.467 -0.143,6.834c-0.04,1.326 -0.167,2.17 -0.373,2.513c-0.206,0.344 -0.587,0.834 -1.133,1.473c-0.556,0.638 -0.826,1.336 -0.826,2.082c0,2.356 2.347,3.535 7.042,3.535l1.476,0c4.536,0 6.811,-1.08 6.811,-3.25c0,-0.589 -0.181,-1.139 -0.546,-1.64c-0.365,-0.502 -0.634,-0.952 -0.808,-1.366c-0.176,-0.411 -0.263,-1.227 -0.263,-2.454c0,-1.58 0.207,-2.367 0.619,-2.367m-25.545,2.112c0,1.109 -0.254,2.013 -0.752,2.709c-0.502,0.707 -1.184,1.061 -2.064,1.061c-0.761,0 -1.428,-0.402 -1.999,-1.217c-0.579,-0.805 -0.863,-1.699 -0.863,-2.671c0,-1.139 0.562,-1.708 1.672,-1.708c0.12,0 0.318,0.009 0.587,0.029c0.271,0.02 0.468,0.03 0.603,0.03l1,0c0.586,0 1.03,0.117 1.348,0.343c0.309,0.236 0.468,0.708 0.468,1.424m-4.157,-7.414c-0.476,0 -0.807,-0.048 -0.998,-0.136c-0.182,-0.089 -0.277,-0.325 -0.277,-0.688c0,-0.922 0.285,-1.817 0.849,-2.65c0.561,-0.835 1.268,-1.513 2.1,-2.014c0.841,-0.501 1.634,-0.756 2.388,-0.756c1.038,0 1.927,0.176 2.672,0.53c0.754,0.354 1.483,0.796 2.213,1.325c0.722,0.531 1.198,0.796 1.435,0.796c0.46,0 0.889,-0.343 1.278,-1.011c0.388,-0.667 0.578,-1.316 0.578,-1.944c0,-1.414 -0.595,-2.73 -1.784,-3.928c-1.19,-1.198 -2.65,-2.15 -4.378,-2.847c-1.729,-0.697 -3.34,-1.051 -4.83,-1.051c-2.712,0 -5.052,0.727 -7.027,2.17c-1.975,1.444 -3.465,3.329 -4.465,5.666c-0.999,2.335 -1.498,4.81 -1.498,7.422c0,2.946 0.61,5.617 1.839,8.012c1.221,2.396 2.863,4.261 4.917,5.626c2.054,1.356 4.26,2.034 6.615,2.034c1.944,0 3.648,-0.404 5.131,-1.209c1.483,-0.804 2.705,-1.835 3.648,-3.083c0.952,-1.257 1.666,-2.582 2.15,-3.976c0.483,-1.404 0.729,-2.691 0.729,-3.868c0,-1.768 -0.262,-2.946 -0.785,-3.536c-0.522,-0.589 -1.246,-0.884 -2.165,-0.884l-10.335,0z" id="path46"/>
     </g>
     <g id="g48">
      <path fill="none" stroke="#00a0e4" stroke-width="0.283" stroke-miterlimit="10" d="m82.7061,795.542175c0.968,0 1.768,-0.815 2.395,-2.455c0.634,-1.63 1.087,-3.477 1.364,-5.538c0.278,-2.052 0.421,-3.692 0.421,-4.91c0,-2.434 -0.731,-3.653 -2.183,-3.653c-1.427,0.099 -2.465,1.552 -3.124,4.351c-0.665,2.808 -1.062,5.695 -1.213,8.669c0,0.933 0.207,1.759 0.626,2.475c0.413,0.708 0.984,1.061 1.714,1.061zm-13.285,-9.544c0,-2.278 0.341,-4.311 1.016,-6.107c0.674,-1.787 1.617,-3.309 2.839,-4.566c1.222,-1.247 2.609,-2.19 4.171,-2.818c1.563,-0.629 3.228,-0.943 5.013,-0.943c2.403,0 4.79,0.649 7.177,1.934c2.388,1.287 4.346,3.113 5.885,5.48c1.539,2.366 2.308,5.075 2.308,8.139c0,2.503 -0.524,4.939 -1.57,7.316c-1.055,2.376 -2.578,4.309 -4.568,5.811c-1.999,1.504 -4.308,2.25 -6.94,2.25c-1.974,0 -3.887,-0.365 -5.719,-1.09c-1.84,-0.737 -3.481,-1.817 -4.932,-3.251c-1.451,-1.433 -2.593,-3.171 -3.428,-5.224c-0.832,-2.052 -1.252,-4.368 -1.252,-6.931zm-20.699,5.242c0.237,0 0.697,0.325 1.388,0.973c0.69,0.648 1.34,1.355 1.935,2.121c0.602,0.756 0.904,1.276 0.904,1.55c0,0.267 -0.207,0.757 -0.619,1.484c-0.412,0.727 -0.611,1.296 -0.611,1.699c0,1.315 0.699,2.18 2.095,2.611c1.395,0.422 2.87,0.639 4.417,0.639c4.759,0 7.138,-1.237 7.138,-3.712c0,-0.785 -0.135,-1.287 -0.405,-1.493c-0.261,-0.215 -0.856,-0.481 -1.761,-0.804c-0.912,-0.315 -1.728,-0.746 -2.449,-1.296c-2.031,-1.287 -3.046,-2.19 -3.046,-2.721c0,-0.421 0.46,-1.325 1.379,-2.709c0.921,-1.385 2.079,-3.024 3.482,-4.901c1.396,-1.885 2.174,-2.935 2.323,-3.161c0.556,-0.863 1.366,-1.718 2.42,-2.582c1.055,-0.854 1.713,-1.413 1.967,-1.669c0.246,-0.265 0.373,-0.747 0.373,-1.453c0,-2.288 -1.586,-3.427 -4.76,-3.427l-6.708,0c-0.961,0 -1.594,0.098 -1.92,0.285c-0.318,0.196 -0.777,0.746 -1.363,1.659l-4.426,7.021c-0.848,1.561 -1.444,2.336 -1.8,2.336c-0.318,0 -0.476,-0.539 -0.476,-1.64c0,-1.482 0.103,-2.444 0.309,-2.895c0.198,-0.443 0.523,-0.933 0.976,-1.465c0.445,-0.528 0.666,-1.158 0.666,-1.874c0,-0.746 -0.151,-1.404 -0.46,-1.973c-0.309,-0.58 -1.04,-1.071 -2.198,-1.484c-1.157,-0.412 -2.862,-0.618 -5.107,-0.618l-0.999,0c-2.34,0 -4.148,0.225 -5.424,0.678c-1.277,0.451 -1.912,1.462 -1.912,3.033c0,0.747 0.293,1.375 0.889,1.865c0.593,0.502 1.015,0.913 1.252,1.238c0.246,0.325 0.421,1.198 0.532,2.602c0.095,1.031 0.143,2.602 0.143,4.723c0,2.19 -0.048,4.467 -0.143,6.834c-0.04,1.326 -0.167,2.17 -0.373,2.513c-0.206,0.344 -0.587,0.834 -1.133,1.473c-0.556,0.638 -0.826,1.336 -0.826,2.082c0,2.356 2.347,3.535 7.042,3.535l1.476,0c4.536,0 6.811,-1.08 6.811,-3.25c0,-0.589 -0.181,-1.139 -0.546,-1.64c-0.365,-0.502 -0.634,-0.952 -0.808,-1.366c-0.176,-0.411 -0.263,-1.227 -0.263,-2.454c0,-1.58 0.207,-2.367 0.619,-2.367zm-25.545,2.112c0,1.109 -0.254,2.013 -0.752,2.709c-0.502,0.707 -1.184,1.061 -2.064,1.061c-0.761,0 -1.428,-0.402 -1.999,-1.217c-0.579,-0.805 -0.863,-1.699 -0.863,-2.671c0,-1.139 0.562,-1.708 1.672,-1.708c0.12,0 0.318,0.009 0.587,0.029c0.271,0.02 0.468,0.03 0.603,0.03l1,0c0.586,0 1.03,0.117 1.348,0.343c0.309,0.236 0.468,0.708 0.468,1.424zm-4.157,-7.414c-0.476,0 -0.807,-0.048 -0.998,-0.136c-0.182,-0.089 -0.277,-0.325 -0.277,-0.688c0,-0.922 0.285,-1.817 0.849,-2.65c0.561,-0.835 1.268,-1.513 2.1,-2.014c0.841,-0.501 1.634,-0.756 2.388,-0.756c1.038,0 1.927,0.176 2.672,0.53c0.754,0.354 1.483,0.796 2.213,1.325c0.722,0.531 1.198,0.796 1.435,0.796c0.46,0 0.889,-0.343 1.278,-1.011c0.388,-0.667 0.578,-1.316 0.578,-1.944c0,-1.414 -0.595,-2.73 -1.784,-3.928c-1.19,-1.198 -2.65,-2.15 -4.378,-2.847c-1.729,-0.697 -3.34,-1.051 -4.83,-1.051c-2.712,0 -5.052,0.727 -7.027,2.17c-1.975,1.444 -3.465,3.329 -4.465,5.666c-0.999,2.335 -1.498,4.81 -1.498,7.422c0,2.946 0.61,5.617 1.839,8.012c1.221,2.396 2.863,4.261 4.917,5.626c2.054,1.356 4.26,2.034 6.615,2.034c1.944,0 3.648,-0.404 5.131,-1.209c1.483,-0.804 2.705,-1.835 3.648,-3.083c0.952,-1.257 1.666,-2.582 2.15,-3.976c0.483,-1.404 0.729,-2.691 0.729,-3.868c0,-1.768 -0.262,-2.946 -0.785,-3.536c-0.522,-0.589 -1.246,-0.884 -2.165,-0.884l-10.335,0z" id="path50"/>
     </g>
     <g id="g52">
      <path fill="#009847" fill-rule="evenodd" d="m44.985107,727.80542l-0.083,0l-0.146,0c-0.036,-0.958 -0.035,-1.932 -0.035,-2.862l0,-19.711c0,-0.525 -0.004,-1.338 0.039,-2.079c0.271,1.583 0.271,3.747 0.271,5.189l0,15.996c0,0.868 0.019,2.246 -0.046,3.467m99.487,-13.079c0.507,2.092 1.262,4.116 2.281,6.05c2.011,3.835 4.799,6.971 8.355,9.269c3.512,2.253 7.385,3.428 11.5,3.428c3.19,0 6.308,-0.64 9.17,-2.15c2.52,-1.33 4.764,-3.124 6.552,-5.423c1.566,-2.009 2.829,-4.243 3.7,-6.684c0.785,-2.219 1.299,-4.558 1.299,-6.936c0,-3.053 -0.494,-6.261 -2.588,-8.555c-0.036,-0.037 -0.069,-0.075 -0.106,-0.112c0.847,-1.568 1.34,-3.297 1.34,-5.119c0,-3.655 -1.59,-6.819 -4.104,-9.281c-2.181,-2.135 -4.751,-3.707 -7.536,-4.799c-2.63,-1.031 -5.403,-1.695 -8.22,-1.695c-4.4,0 -8.589,1.146 -12.249,3.748c-0.538,0.382 -1.056,0.784 -1.553,1.205c-1.021,-1.607 -2.518,-2.864 -4.481,-3.578c-2.541,-0.924 -5.418,-1.153 -8.091,-1.153c-0.558,0 -1.119,-0.018 -1.679,-0.035c-0.69,-0.02 -1.383,-0.039 -2.074,-0.039c-2.713,0 -5.605,0.283 -8.164,1.303c-0.684,0.274 -1.315,0.614 -1.889,1.012c-0.221,-0.183 -0.454,-0.355 -0.699,-0.519c-2.015,-1.323 -4.356,-1.796 -6.704,-1.796c-0.485,0 -0.973,0.02 -1.46,0.042c-0.313,0.015 -0.635,0.032 -0.949,0.032c-2.556,0 -5.12,0.38 -7.522,1.349c-1.985,0.808 -3.584,2.14 -4.621,3.862c-1.167,-0.892 -2.412,-1.685 -3.734,-2.378c-3.698,-1.938 -7.654,-3.055 -11.8,-3.055c-2.895,0 -5.735,0.495 -8.45,1.558c-2.537,0.992 -4.829,2.458 -6.848,4.352c-0.751,-1.14 -1.725,-2.143 -2.866,-2.985c-3.405,-2.529 -9.279,-2.703 -13.315,-2.703c-4.097,0 -9.112,0.479 -12.514,3.156c-1.16,-0.848 -2.516,-1.487 -4.01,-1.902c-3.106,-0.847 -6.294,-1.254 -9.503,-1.254c-3.101,0 -6.18,0.402 -9.173,1.258c-4.605,1.317 -7.858,4.838 -7.858,10.012c0,3.518 1.779,6.398 4.606,8.14c0.139,0.906 0.186,1.984 0.231,2.795c0.144,2.877 0.145,5.797 0.145,8.677c0,3.762 -0.001,7.534 -0.079,11.295c-0.024,1.052 -0.031,2.325 -0.135,3.463c-0.799,0.539 -1.561,1.154 -2.222,1.87c-1.417,1.524 -2.115,3.545 -2.115,5.662c0,5.659 3.737,9.288 8.702,10.725c3.48,0.998 7.06,1.507 10.666,1.507c1.772,0 3.675,-0.163 5.461,-0.255c2.393,-0.134 4.813,-0.251 7.209,-0.251c1.844,0 3.716,0.114 5.569,0.246c2.194,0.147 4.409,0.26 6.609,0.26c5.706,0 13.239,-0.886 15.912,-7.132c0.547,-1.278 0.812,-2.652 0.812,-4.052c0,-3.445 -1.506,-6.414 -4.198,-8.282c-0.004,-0.047 -0.008,-0.093 -0.013,-0.136c-0.172,-1.847 -0.203,-3.814 -0.207,-5.726c0.877,1.237 1.866,2.387 2.966,3.445c2.409,2.314 5.169,4.081 8.238,5.276c3.001,1.157 6.145,1.735 9.343,1.735c4.419,0 8.567,-1.236 12.204,-3.895c3.375,-2.478 5.988,-5.712 7.772,-9.621c1.003,-2.214 1.729,-4.515 2.151,-6.884c0.422,1.091 0.835,2.237 1.089,3.283c0.157,0.671 0.273,1.377 0.273,2.07l0,2.074c0,3.711 1.366,7.02 3.934,9.586c2.635,2.61 5.999,3.769 9.581,3.769c2.611,0 5.027,-0.946 7.002,-2.737c1.407,-1.274 2.609,-2.754 3.537,-4.45c0.802,-1.465 1.523,-2.993 2.206,-4.522l3.314,-7.42z" id="path54"/>
     </g>
     <g id="g56">
      <path fill="#ffffff" fill-rule="evenodd" d="m169.858185,716.038086c0,1.393 -0.327,2.529 -0.973,3.405c-0.645,0.889 -1.528,1.332 -2.666,1.332c-0.984,0 -1.845,-0.505 -2.582,-1.529c-0.748,-1.012 -1.118,-2.136 -1.118,-3.358c0,-1.431 0.729,-2.147 2.163,-2.147c0.154,0 0.411,0.013 0.758,0.037c0.349,0.025 0.605,0.038 0.779,0.038l1.291,0c0.759,0 1.333,0.148 1.744,0.431c0.399,0.297 0.604,0.889 0.604,1.791m-5.371,-9.318c-0.615,0 -1.044,-0.062 -1.291,-0.173c-0.235,-0.112 -0.359,-0.407 -0.359,-0.864c0,-1.16 0.369,-2.283 1.097,-3.332c0.727,-1.049 1.64,-1.9 2.718,-2.531c1.085,-0.629 2.109,-0.95 3.082,-0.95c1.343,0 2.493,0.223 3.456,0.667c0.974,0.445 1.916,1 2.859,1.666c0.933,0.667 1.548,1 1.855,1c0.595,0 1.149,-0.433 1.651,-1.272c0.502,-0.839 0.749,-1.654 0.749,-2.443c0,-1.777 -0.77,-3.431 -2.308,-4.936c-1.536,-1.506 -3.423,-2.703 -5.657,-3.58c-2.234,-0.876 -4.315,-1.32 -6.242,-1.32c-3.507,0 -6.529,0.913 -9.082,2.728c-2.551,1.814 -4.478,4.184 -5.77,7.121c-1.293,2.936 -1.936,6.047 -1.936,9.329c0,3.702 0.789,7.06 2.377,10.07c1.578,3.011 3.699,5.356 6.354,7.072c2.655,1.702 5.504,2.554 8.548,2.554c2.512,0 4.715,-0.505 6.632,-1.517c1.917,-1.012 3.495,-2.308 4.715,-3.876c1.231,-1.579 2.153,-3.244 2.778,-4.998c0.624,-1.764 0.942,-3.381 0.942,-4.862c0,-2.222 -0.337,-3.703 -1.014,-4.443c-0.676,-0.74 -1.609,-1.11 -2.799,-1.11l-13.355,0zm-40.692,-1.408c0.451,0.89 0.943,1.333 1.465,1.333c0.319,0 0.606,-0.197 0.873,-0.593c0.829,-1.331 1.669,-2.812 2.501,-4.442c0.829,-1.628 1.25,-3.06 1.25,-4.295c0,-0.42 -0.082,-0.74 -0.236,-0.951c-0.163,-0.209 -0.43,-0.467 -0.819,-0.789c-0.38,-0.308 -0.677,-0.628 -0.903,-0.949c-0.215,-0.334 -0.338,-0.765 -0.368,-1.309c0,-1.789 0.757,-2.999 2.264,-3.604c1.518,-0.605 3.567,-0.913 6.149,-0.913c0.442,0 1.078,0.013 1.918,0.037c0.84,0.025 1.456,0.038 1.834,0.038c2.634,0 4.716,0.271 6.242,0.826c1.528,0.555 2.297,1.889 2.297,3.986c0,0.679 -0.072,1.185 -0.215,1.518c-0.144,0.321 -0.431,0.704 -0.861,1.124c-0.43,0.431 -0.831,0.887 -1.179,1.381c-0.359,0.481 -0.75,1.21 -1.178,2.197l-8.806,19.709c-0.728,1.629 -1.393,2.999 -1.989,4.085c-0.594,1.086 -1.373,2.049 -2.326,2.912c-0.954,0.864 -2.06,1.296 -3.311,1.296c-2.348,0 -4.253,-0.716 -5.697,-2.148c-1.447,-1.443 -2.164,-3.195 -2.164,-5.269l0,-2.073c0,-1.112 -0.154,-2.284 -0.441,-3.505c-0.297,-1.222 -0.932,-3.06 -1.905,-5.53c-0.964,-2.467 -1.867,-4.541 -2.697,-6.231c-0.831,-1.678 -1.916,-3.554 -3.259,-5.615c-0.298,-0.444 -0.841,-0.939 -1.64,-1.457c-0.8,-0.517 -1.384,-0.962 -1.752,-1.332c-0.361,-0.371 -0.544,-0.926 -0.544,-1.666c0,-1.544 0.779,-2.63 2.326,-3.258c1.558,-0.63 3.383,-0.95 5.484,-0.95c0.247,0 0.636,-0.013 1.189,-0.038c0.554,-0.024 0.953,-0.037 1.219,-0.037c1.569,0 2.799,0.296 3.701,0.889c0.891,0.592 1.343,1.777 1.343,3.553c0,0.519 -0.145,0.976 -0.432,1.346c-0.287,0.371 -0.716,0.827 -1.301,1.369c-0.584,0.544 -0.933,0.951 -1.045,1.21c0,1.37 1.005,4.073 3.013,8.145m-35.043,13.477c-0.943,0 -1.681,-0.444 -2.214,-1.333c-0.543,-0.901 -0.809,-1.937 -0.809,-3.109c0.194,-3.74 0.707,-7.368 1.568,-10.898c0.85,-3.517 2.193,-5.344 4.037,-5.468c1.877,0 2.819,1.532 2.819,4.592c0,1.531 -0.184,3.591 -0.543,6.17c-0.359,2.592 -0.942,4.911 -1.764,6.961c-0.809,2.061 -1.843,3.085 -3.094,3.085m-17.168,-11.996c0,3.222 0.542,6.134 1.618,8.714c1.077,2.579 2.553,4.763 4.429,6.566c1.876,1.8 3.997,3.158 6.375,4.084c2.368,0.913 4.838,1.369 7.39,1.369c3.404,0 6.386,-0.938 8.97,-2.826c2.571,-1.889 4.539,-4.318 5.903,-7.306c1.354,-2.985 2.03,-6.047 2.03,-9.193c0,-3.851 -0.995,-7.257 -2.984,-10.232c-1.989,-2.974 -4.52,-5.269 -7.604,-6.885c-3.086,-1.617 -6.171,-2.432 -9.277,-2.432c-2.306,0 -4.458,0.396 -6.477,1.185c-2.02,0.789 -3.813,1.974 -5.392,3.542c-1.579,1.58 -2.799,3.492 -3.669,5.738c-0.872,2.258 -1.312,4.814 -1.312,7.676m-30.616,26.657c-0.564,-0.382 -0.964,-0.801 -1.22,-1.283c-0.247,-0.468 -0.42,-1.259 -0.533,-2.345c-0.102,-1.086 -0.153,-2.715 -0.153,-4.887l0,-19.709c0,-2.9 0.214,-4.764 0.655,-5.602c0.431,-0.84 1.066,-1.617 1.906,-2.333c0.832,-0.716 1.25,-1.703 1.25,-2.937c0,-2.234 -1.291,-3.703 -3.864,-4.418c-2.582,-0.704 -5.268,-1.061 -8.076,-1.061c-2.665,0 -5.228,0.345 -7.686,1.048c-2.462,0.703 -3.691,2.123 -3.691,4.283c0,1.32 0.656,2.357 1.967,3.109c0.77,0.445 1.292,0.814 1.578,1.111c0.287,0.296 0.545,0.926 0.78,1.888c0.226,0.963 0.39,2.468 0.502,4.504c0.103,2.037 0.155,5.035 0.155,8.998c0,5.194 -0.031,9.009 -0.084,11.427c-0.05,2.42 -0.153,4.134 -0.306,5.122c-0.155,1 -0.349,1.617 -0.585,1.876c-0.246,0.247 -0.758,0.629 -1.548,1.135c-0.676,0.433 -1.178,0.839 -1.516,1.21c-0.339,0.357 -0.513,0.876 -0.513,1.518c0,2.456 1.518,4.121 4.542,4.997c3.013,0.865 6.076,1.296 9.172,1.296c0.338,0 2.061,-0.086 5.166,-0.246c3.096,-0.173 5.597,-0.259 7.503,-0.259c1.548,0 3.526,0.086 5.936,0.259c2.397,0.16 4.478,0.246 6.242,0.246c7.379,0 11.068,-1.752 11.068,-5.245c0,-1.555 -0.634,-2.714 -1.894,-3.479c-0.779,-0.421 -1.324,-0.84 -1.611,-1.26c-0.296,-0.431 -0.522,-1.468 -0.677,-3.098c-0.153,-1.641 -0.235,-4.356 -0.235,-8.156l0,-19.253c0,-1.183 0.123,-2.086 0.359,-2.715c0.246,-0.617 0.759,-1.197 1.547,-1.727c0.758,-0.494 1.303,-0.926 1.62,-1.296c0.308,-0.37 0.472,-0.976 0.472,-1.814c0,-1.494 -0.728,-2.789 -2.183,-3.863c-1.446,-1.074 -4.808,-1.616 -10.056,-1.616c-7.062,0 -10.588,1.678 -10.588,5.022c0,1.148 0.225,1.95 0.697,2.419c0.462,0.456 0.984,0.975 1.568,1.53c0.575,0.568 1.067,1.617 1.455,3.171c0.39,1.556 0.586,4 0.586,7.319l0,15.994c0,3.579 -0.165,5.911 -0.493,6.973c-0.338,1.061 -0.779,1.777 -1.353,2.147c-0.215,0.185 -1.516,0.285 -3.935,0.285c-2.347,0 -3.661,-0.1 -3.926,-0.285" id="path58"/>
     </g>
     <g id="g60">
      <path fill="none" stroke="#00a0e4" stroke-width="0.283" stroke-miterlimit="10" d="m169.858185,716.038086c0,1.393 -0.327,2.529 -0.973,3.405c-0.645,0.889 -1.528,1.332 -2.666,1.332c-0.984,0 -1.845,-0.505 -2.582,-1.529c-0.748,-1.012 -1.118,-2.136 -1.118,-3.358c0,-1.431 0.729,-2.147 2.163,-2.147c0.154,0 0.411,0.013 0.758,0.037c0.349,0.025 0.605,0.038 0.779,0.038l1.291,0c0.759,0 1.333,0.148 1.744,0.431c0.399,0.297 0.604,0.889 0.604,1.791zm-5.371,-9.318c-0.615,0 -1.044,-0.062 -1.291,-0.173c-0.235,-0.112 -0.359,-0.407 -0.359,-0.864c0,-1.16 0.369,-2.283 1.097,-3.332c0.727,-1.049 1.64,-1.9 2.718,-2.531c1.085,-0.629 2.109,-0.95 3.082,-0.95c1.343,0 2.493,0.223 3.456,0.667c0.974,0.445 1.916,1 2.859,1.666c0.933,0.667 1.548,1 1.855,1c0.595,0 1.149,-0.433 1.651,-1.272c0.502,-0.839 0.749,-1.654 0.749,-2.443c0,-1.777 -0.77,-3.431 -2.308,-4.936c-1.536,-1.506 -3.423,-2.703 -5.657,-3.58c-2.234,-0.876 -4.315,-1.32 -6.242,-1.32c-3.507,0 -6.529,0.913 -9.082,2.728c-2.551,1.814 -4.478,4.184 -5.77,7.121c-1.293,2.936 -1.936,6.047 -1.936,9.329c0,3.702 0.789,7.06 2.377,10.07c1.578,3.011 3.699,5.356 6.354,7.072c2.655,1.702 5.504,2.554 8.548,2.554c2.512,0 4.715,-0.505 6.632,-1.517c1.917,-1.012 3.495,-2.308 4.715,-3.876c1.231,-1.579 2.153,-3.244 2.778,-4.998c0.624,-1.764 0.942,-3.381 0.942,-4.862c0,-2.222 -0.337,-3.703 -1.014,-4.443c-0.676,-0.74 -1.609,-1.11 -2.799,-1.11l-13.355,0zm-40.692,-1.408c0.451,0.89 0.943,1.333 1.465,1.333c0.319,0 0.606,-0.197 0.873,-0.593c0.829,-1.331 1.669,-2.812 2.501,-4.442c0.829,-1.628 1.25,-3.06 1.25,-4.295c0,-0.42 -0.082,-0.74 -0.236,-0.951c-0.163,-0.209 -0.43,-0.467 -0.819,-0.789c-0.38,-0.308 -0.677,-0.628 -0.903,-0.949c-0.215,-0.334 -0.338,-0.765 -0.368,-1.309c0,-1.789 0.757,-2.999 2.264,-3.604c1.518,-0.605 3.567,-0.913 6.149,-0.913c0.442,0 1.078,0.013 1.918,0.037c0.84,0.025 1.456,0.038 1.834,0.038c2.634,0 4.716,0.271 6.242,0.826c1.528,0.555 2.297,1.889 2.297,3.986c0,0.679 -0.072,1.185 -0.215,1.518c-0.144,0.321 -0.431,0.704 -0.861,1.124c-0.43,0.431 -0.831,0.887 -1.179,1.381c-0.359,0.481 -0.75,1.21 -1.178,2.197l-8.806,19.709c-0.728,1.629 -1.393,2.999 -1.989,4.085c-0.594,1.086 -1.373,2.049 -2.326,2.912c-0.954,0.864 -2.06,1.296 -3.311,1.296c-2.348,0 -4.253,-0.716 -5.697,-2.148c-1.447,-1.443 -2.164,-3.195 -2.164,-5.269l0,-2.073c0,-1.112 -0.154,-2.284 -0.441,-3.505c-0.297,-1.222 -0.932,-3.06 -1.905,-5.53c-0.964,-2.467 -1.867,-4.541 -2.697,-6.231c-0.831,-1.678 -1.916,-3.554 -3.259,-5.615c-0.298,-0.444 -0.841,-0.939 -1.64,-1.457c-0.8,-0.517 -1.384,-0.962 -1.752,-1.332c-0.361,-0.371 -0.544,-0.926 -0.544,-1.666c0,-1.544 0.779,-2.63 2.326,-3.258c1.558,-0.63 3.383,-0.95 5.484,-0.95c0.247,0 0.636,-0.013 1.189,-0.038c0.554,-0.024 0.953,-0.037 1.219,-0.037c1.569,0 2.799,0.296 3.701,0.889c0.891,0.592 1.343,1.777 1.343,3.553c0,0.519 -0.145,0.976 -0.432,1.346c-0.287,0.371 -0.716,0.827 -1.301,1.369c-0.584,0.544 -0.933,0.951 -1.045,1.21c0,1.37 1.005,4.073 3.013,8.145zm-35.043,13.477c-0.943,0 -1.681,-0.444 -2.214,-1.333c-0.543,-0.901 -0.809,-1.937 -0.809,-3.109c0.194,-3.74 0.707,-7.368 1.568,-10.898c0.85,-3.517 2.193,-5.344 4.037,-5.468c1.877,0 2.819,1.532 2.819,4.592c0,1.531 -0.184,3.591 -0.543,6.17c-0.359,2.592 -0.942,4.911 -1.764,6.961c-0.809,2.061 -1.843,3.085 -3.094,3.085zm17.875,-25.473c0,3.222 0.542,6.134 1.618,8.714c1.077,2.579 2.553,4.763 4.429,6.566c1.876,1.8 3.997,3.158 6.375,4.084c2.368,0.913 4.838,1.369 7.39,1.369c3.404,0 6.386,-0.938 8.97,-2.826c2.571,-1.889 4.539,-4.318 5.903,-7.306c1.354,-2.985 2.03,-6.047 2.03,-9.193c0,-3.851 -0.995,-7.257 -2.984,-10.232c-1.989,-2.974 -4.52,-5.269 -7.604,-6.885c-3.086,-1.617 -6.171,-2.432 -9.277,-2.432c-2.306,0 -4.458,0.396 -6.477,1.185c-2.02,0.789 -3.813,1.974 -5.392,3.542c-1.579,1.58 -2.799,3.492 -3.669,5.738c-0.872,2.258 -1.312,4.814 -1.312,7.676zm-13.448,38.653c-0.564,-0.382 -0.964,-0.801 -1.22,-1.283c-0.247,-0.468 -0.42,-1.259 -0.533,-2.345c-0.102,-1.086 -0.153,-2.715 -0.153,-4.887l0,-19.709c0,-2.9 0.214,-4.764 0.655,-5.602c0.431,-0.84 1.066,-1.617 1.906,-2.333c0.832,-0.716 1.25,-1.703 1.25,-2.937c0,-2.234 -1.291,-3.703 -3.864,-4.418c-2.582,-0.704 -5.268,-1.061 -8.076,-1.061c-2.665,0 -5.228,0.345 -7.686,1.048c-2.462,0.703 -3.691,2.123 -3.691,4.283c0,1.32 0.656,2.357 1.967,3.109c0.77,0.445 1.292,0.814 1.578,1.111c0.287,0.296 0.545,0.926 0.78,1.888c0.226,0.963 0.39,2.468 0.502,4.504c0.103,2.037 0.155,5.035 0.155,8.998c0,5.194 -0.031,9.009 -0.084,11.427c-0.05,2.42 -0.153,4.134 -0.306,5.122c-0.155,1 -0.349,1.617 -0.585,1.876c-0.246,0.247 -0.758,0.629 -1.548,1.135c-0.676,0.433 -1.178,0.839 -1.516,1.21c-0.339,0.357 -0.513,0.876 -0.513,1.518c0,2.456 1.518,4.121 4.542,4.997c3.013,0.865 6.076,1.296 9.172,1.296c0.338,0 2.061,-0.086 5.166,-0.246c3.096,-0.173 5.597,-0.259 7.503,-0.259c1.548,0 3.526,0.086 5.936,0.259c2.397,0.16 4.478,0.246 6.242,0.246c7.379,0 11.068,-1.752 11.068,-5.245c0,-1.555 -0.634,-2.714 -1.894,-3.479c-0.779,-0.421 -1.324,-0.84 -1.611,-1.26c-0.296,-0.431 -0.522,-1.468 -0.677,-3.098c-0.153,-1.641 -0.235,-4.356 -0.235,-8.156l0,-19.253c0,-1.183 0.123,-2.086 0.359,-2.715c0.246,-0.617 0.759,-1.197 1.547,-1.727c0.758,-0.494 1.303,-0.926 1.62,-1.296c0.308,-0.37 0.472,-0.976 0.472,-1.814c0,-1.494 -0.728,-2.789 -2.183,-3.863c-1.446,-1.074 -4.808,-1.616 -10.056,-1.616c-7.062,0 -10.588,1.678 -10.588,5.022c0,1.148 0.225,1.95 0.697,2.419c0.462,0.456 0.984,0.975 1.568,1.53c0.575,0.568 1.067,1.617 1.455,3.171c0.39,1.556 0.586,4 0.586,7.319l0,17.475c0,3.579 -0.165,5.911 -0.493,6.973c-0.338,1.061 -0.779,1.777 -1.353,2.147c-0.215,0.185 -1.516,0.285 -3.935,0.285c-2.347,0 -3.661,-0.1 -3.926,-0.285l0,-1.481z" id="path62"/>
     </g>
     <g id="g64">
      <path fill="#c9d40d" fill-rule="evenodd" d="m125.2677,795.958191c18.164,0 32.894,-14.731 32.894,-32.895c0,-18.164 -14.73,-32.894 -32.894,-32.894c-18.164,0 -32.895,14.73 -32.895,32.894c0,18.164 14.731,32.895 32.895,32.895" id="path66"/>
     </g>
     <g id="g68">
      <path fill="none" stroke="#00a0e4" stroke-width="0.283" stroke-miterlimit="10" d="m125.2677,795.958191c18.164,0 32.894,-14.731 32.894,-32.895c0,-18.164 -14.73,-32.894 -32.894,-32.894c-18.164,0 -32.895,14.73 -32.895,32.894c0,18.164 14.731,32.895 32.895,32.895z" id="path70"/>
     </g>
     <g id="g72">
      <path fill="#ffffff" fill-rule="evenodd" d="m125.264801,794.265198c17.147,0 31.051,-13.907 31.051,-31.053c0,-17.146 -13.904,-31.052 -31.051,-31.052c-17.147,0 -31.052,13.906 -31.052,31.052c0,17.146 13.905,31.053 31.052,31.053" id="path74"/>
     </g>
     <g id="g76">
      <path fill="none" stroke="#00a0e4" stroke-width="0.283" stroke-miterlimit="10" d="m125.264801,794.265198c17.147,0 31.051,-13.907 31.051,-31.053c0,-17.146 -13.904,-31.052 -31.051,-31.052c-17.147,0 -31.052,13.906 -31.052,31.052c0,17.146 13.905,31.053 31.052,31.053z" id="path78"/>
     </g>
     <g id="g80">
      <path fill="#006f37" fill-rule="evenodd" d="m102.866592,732.402588l-0.848,-0.37l-1.609,0.392l-0.544,0.609c0,0 -0.24,0.458 -0.24,0.697c0,0.239 0.392,1.11 0.392,1.11c0,0 1.588,0.98 1.718,1.11c0.131,0.131 2.675,2.374 2.675,2.374l2.392,2.134l-0.652,1.175l-1.346,2.597l-1.346,4.081l-0.651,4.038l-0.087,4.212l0.087,2.344l0.555,3.821c5.474,15.604 16.946,23.733 33.092,26.007l4.472,0.086l2.779,-0.043l1.173,0l4.114,0.025l3.476,-0.087l8.17,-1.304l-1.999,-1.912l-4.432,-3.998l-2.087,-3.39l-1.477,-4.172l-1.129,-4.78l-0.609,-4.172l-0.521,-3.825l-0.696,-3.563l-1.682,-4.51l-1.389,-2.736c-5.72,-11.687 -15.835,-15.744 -28.482,-14.631l-4.548,1.209l-1.523,0.849l-0.63,0.632l-6.568,-6.009z" id="path82"/>
     </g>
     <g id="g84">
      <path fill="#009847" fill-rule="evenodd" d="m101.997696,733.967224l-0.848,-0.37l-1.61,0.392l-0.543,0.609c0,0 -0.24,0.458 -0.24,0.697c0,0.239 0.391,1.111 0.391,1.111c0,0 1.588,0.979 1.718,1.11c0.131,0.131 2.676,2.374 2.676,2.374l2.391,2.133l-0.651,1.176l-1.347,2.597l-1.346,4.081l-0.651,4.038l-0.087,4.212l0.087,2.344l0.555,3.821c5.475,15.603 16.947,23.732 33.093,26.006l4.472,0.087l2.779,-0.044l1.172,0l4.114,0.025l3.476,-0.087l8.171,-1.304l-2,-1.911l-4.432,-3.999l-2.086,-3.389l-1.477,-4.172l-1.13,-4.781l-0.609,-4.171l-0.521,-3.824l-0.696,-3.564l-1.681,-4.511l-1.39,-2.735c-5.719,-11.688 -15.835,-15.745 -28.482,-14.632l-4.548,1.21l-1.521,0.849l-0.632,0.632l-6.567,-6.01z" id="path86"/>
     </g>
     <g id="g88">
      <path fill="#8cb52b" fill-rule="evenodd" d="m110.228302,740.912292l2.694,-1.13c13.021,-2.207 21.604,1.664 30.16,12.863c2.794,5.712 3.848,10.81 4.606,17.122c1.348,7.415 3.609,12.556 9.3,17.471l1.738,1.39c-21.844,3.791 -48.595,0.841 -55.365,-26.595l0,-4.868l0.609,-4.954l1.391,-4.172l0.956,-2.955l1.043,-1.043l3.824,5.128c-0.534,4.453 -1.551,8.084 -1.217,12.603c0.415,-4.045 0.96,-7.113 2.347,-10.952l5.215,8.952l-0.522,2c-0.365,4.625 -0.381,8.4 0.261,13.037c0,-4.38 0.158,-8.674 0.521,-13.037l2.521,3.302l4.78,6.779c0.444,2.754 0.555,5.722 1.738,8.258c-0.412,-2.475 -0.708,-4.79 -0.608,-7.301l1.216,1.217l2,2.172l1.391,1.564l1.391,1.391l2.519,4.867l-1.651,-4.606l3.042,1.913l3.129,2.433l4.259,1.651l5.736,1.739l-4.78,-2.26l-8.257,-4.954l-5.475,-5.215l-2.434,-3.303l1.912,0.782l2.521,0.435l2.346,0.434l-2.346,-0.869l-2.869,-1.043l-2.434,-0.695l-1.65,-2.694l-2.347,-3.825l-2.26,-3.389c1.699,0.292 11.893,3.946 13.558,2.607c-5.05,0 -9.851,-2.278 -14.34,-4.433l-1.477,-2.172l-1.391,-3.303l-1.304,-3.042l-0.609,-0.869l2.347,0.782c3.657,1.329 7.307,2.086 11.212,2.086c-5.127,-1.091 -9.186,-1.466 -13.646,-4.085l-0.695,-0.782l-2.172,-2.869c0,0 -2.26,-3.476 -2.434,-3.563" id="path90"/>
     </g>
     <g id="g92">
      <path fill="#8cb52b" fill-rule="evenodd" d="m100.059204,735.002014l1.13,-0.782l1.478,0c0,0 0.608,-0.174 0.955,0.26c0.348,0.435 2.869,2.782 3.651,3.912c0.783,1.129 3.824,4.172 3.824,4.172c0,0 2.666,4.38 2.753,4.598c0.087,0.218 2.174,4.159 2.174,4.159l1.458,3.026l1.649,3.389l2.604,4.298l2.822,4.689l2.822,4.255l1.564,1.985l1.892,2.504l1.805,1.589l2.174,2.113l1.067,0.849l1.522,0.936l2.566,1.502l1.849,1.111l2.479,1.523l2.632,1.154l-4.676,-1.633l-4.654,-2.569l-3.48,-2.286l-2.61,-2.286l-1.762,-1.524l-2.457,-2.569l-2.544,-3.244l-2.545,-3.505l-3.023,-5.096l-2.479,-4.55l-2.648,-5.064l-1.346,-2.519l-1.346,-2.213l-1.52,-2.128l-1.606,-2.257l-2.432,-2.475l-1.433,-1.563l-2.127,-1.78l-1.737,-1.26l-0.347,-0.26l-0.098,-0.461z" id="path94"/>
     </g>
     <g id="g96">
      <path fill="#ffffff" fill-rule="evenodd" d="m156.316299,805.055481c0,-5.535 -4.624,-10.022 -10.328,-10.022c-5.704,0 -10.328,4.487 -10.328,10.022c0,5.535 4.624,10.022 10.328,10.022c5.704,0 10.328,-4.487 10.328,-10.022" id="path98"/>
     </g>
     <g id="g100">
      <path fill="#00a0e4" fill-rule="evenodd" d="m146.011902,810.917297c1.694,-0.044 3.067,-0.616 4.124,-1.719c1.054,-1.102 1.594,-2.478 1.626,-4.123c-0.032,-1.668 -0.572,-3.053 -1.622,-4.153c-1.051,-1.1 -2.409,-1.663 -4.082,-1.682c-1.718,0.039 -3.113,0.605 -4.187,1.697c-1.071,1.094 -1.623,2.473 -1.655,4.138c0.034,1.645 0.582,3.021 1.643,4.123c1.066,1.103 2.432,1.675 4.107,1.719l0.046,0zm0,1.463c-2.198,-0.051 -4.016,-0.762 -5.46,-2.133c-1.444,-1.372 -2.193,-3.094 -2.245,-5.172c0.052,-2.118 0.801,-3.859 2.245,-5.227c1.444,-1.365 3.262,-2.072 5.46,-2.117c2.213,0.045 4.036,0.752 5.455,2.117c1.422,1.368 2.157,3.109 2.203,5.227c-0.046,2.078 -0.781,3.8 -2.198,5.172c-1.415,1.371 -3.22,2.082 -5.414,2.133l-0.046,0zm-1.095,-4.898c0.089,0.024 0.214,0.044 0.374,0.063c0.159,0.018 0.356,0.029 0.584,0.029c0.502,-0.006 0.903,-0.107 1.167,-0.306c0.26,-0.202 0.389,-0.472 0.384,-0.811c-0.01,-0.377 -0.18,-0.65 -0.506,-0.82c-0.326,-0.171 -0.735,-0.253 -1.227,-0.25l-0.822,0l0.046,2.095zm-0.049,-1.199l0.824,0c0.475,0 0.838,-0.092 1.087,-0.277c0.245,-0.19 0.401,-0.482 0.467,-0.881c0.066,-2.523 0.166,-2.886 0.251,-3.184c0.088,-0.296 0.187,-0.515 0.294,-0.652l1.87,0c-0.093,0.105 -0.176,0.29 -0.258,0.56c-0.081,0.268 -0.178,0.677 -0.292,1.225c-0.107,0.491 -0.272,0.881 -0.495,1.175c-0.216,0.293 -0.511,0.495 -0.871,0.604l0,0.088c0.465,0.136 0.835,0.355 1.12,0.652c0.277,0.297 0.421,0.66 0.431,1.088c-0.005,0.339 -0.078,0.643 -0.212,0.913c-0.139,0.27 -0.307,0.487 -0.519,0.645c-0.258,0.178 -0.581,0.319 -0.973,0.422c-0.392,0.101 -0.932,0.153 -1.626,0.155c-0.619,-0.002 -1.163,-0.032 -1.643,-0.085c-0.478,-0.051 -0.886,-0.112 -1.23,-0.183l0,-7.259l1.729,0l0.046,4.994z" id="path102"/>
     </g>
    </g>
   </g>
  </g>
 </g>
</svg>