<svg width="24" height="24" viewBox="0 0 24 24" fill="none" xmlns="http://www.w3.org/2000/svg">
<path d="M15.7676 14.6359C15.2344 14.1095 14.5688 14.1095 14.039 14.6359C13.6349 15.0366 13.2307 15.4374 12.8334 15.8449C12.7247 15.957 12.633 15.9807 12.5005 15.906C12.239 15.7634 11.9606 15.6479 11.7092 15.4917C10.5376 14.7548 9.55608 13.8073 8.68667 12.7409C8.25536 12.2111 7.87159 11.644 7.6033 11.0055C7.54896 10.8765 7.55915 10.7916 7.66443 10.6863C8.06857 10.2958 8.46252 9.89503 8.85987 9.49429C9.41344 8.93734 9.41345 8.28531 8.85648 7.72496C8.54063 7.40573 8.22479 7.0933 7.90895 6.77407C7.58292 6.44805 7.26028 6.11863 6.93086 5.79601C6.39766 5.27642 5.73202 5.27642 5.20222 5.79941C4.79468 6.20014 4.40412 6.61106 3.98979 7.005C3.60603 7.36837 3.41244 7.81326 3.37169 8.33285C3.30716 9.17846 3.51433 9.97653 3.8064 10.7542C4.40412 12.3639 5.31429 13.7937 6.41804 15.1045C7.90895 16.8773 9.68853 18.2798 11.7704 19.2919C12.7077 19.7469 13.679 20.0967 14.7352 20.1545C15.462 20.1952 16.0937 20.0118 16.5997 19.4447C16.9461 19.0575 17.3367 18.7043 17.7035 18.3342C18.2468 17.784 18.2502 17.1184 17.7102 16.575C17.065 15.9264 16.4163 15.2811 15.7676 14.6359Z" fill="#51a425"/>
<path d="M15.1189 11.9293L16.3721 11.7153C16.1751 10.5641 15.6317 9.52147 14.8065 8.69284C13.9337 7.82006 12.8299 7.2699 11.6141 7.1001L11.4375 8.36003C12.3782 8.49247 13.2341 8.91698 13.9099 9.59279C14.5484 10.2312 14.9661 11.0395 15.1189 11.9293Z" fill="#51a425"/>
<path d="M17.0786 6.48196C15.6318 5.03525 13.8013 4.12171 11.7806 3.83984L11.604 5.09977C13.3496 5.34429 14.9322 6.13557 16.182 7.38191C17.3673 8.56713 18.145 10.0648 18.4269 11.7119L19.6801 11.4979C19.3506 9.58933 18.4506 7.85736 17.0786 6.48196Z" fill="#51a425"/>
</svg>
